<svg width="134" height="40" viewBox="0 0 134 40" fill="none" xmlns="http://www.w3.org/2000/svg">
<rect x="42" width="92" height="40" rx="20" fill="#D9D9D9" fill-opacity="0.25"/>
<rect width="74" height="40" rx="20" fill="#3E68FD"/>
<path d="M16.1178 25.105C15.3878 25.105 14.7278 24.98 14.1378 24.73C13.5578 24.48 13.0978 24.12 12.7578 23.65C12.4178 23.18 12.2428 22.625 12.2328 21.985H14.4828C14.5128 22.415 14.6628 22.755 14.9328 23.005C15.2128 23.255 15.5928 23.38 16.0728 23.38C16.5628 23.38 16.9478 23.265 17.2278 23.035C17.5078 22.795 17.6478 22.485 17.6478 22.105C17.6478 21.795 17.5528 21.54 17.3628 21.34C17.1728 21.14 16.9328 20.985 16.6428 20.875C16.3628 20.755 15.9728 20.625 15.4728 20.485C14.7928 20.285 14.2378 20.09 13.8078 19.9C13.3878 19.7 13.0228 19.405 12.7128 19.015C12.4128 18.615 12.2628 18.085 12.2628 17.425C12.2628 16.805 12.4178 16.265 12.7278 15.805C13.0378 15.345 13.4728 14.995 14.0328 14.755C14.5928 14.505 15.2328 14.38 15.9528 14.38C17.0328 14.38 17.9078 14.645 18.5778 15.175C19.2578 15.695 19.6328 16.425 19.7028 17.365H17.3928C17.3728 17.005 17.2178 16.71 16.9278 16.48C16.6478 16.24 16.2728 16.12 15.8028 16.12C15.3928 16.12 15.0628 16.225 14.8128 16.435C14.5728 16.645 14.4528 16.95 14.4528 17.35C14.4528 17.63 14.5428 17.865 14.7228 18.055C14.9128 18.235 15.1428 18.385 15.4128 18.505C15.6928 18.615 16.0828 18.745 16.5828 18.895C17.2628 19.095 17.8178 19.295 18.2478 19.495C18.6778 19.695 19.0478 19.995 19.3578 20.395C19.6678 20.795 19.8228 21.32 19.8228 21.97C19.8228 22.53 19.6778 23.05 19.3878 23.53C19.0978 24.01 18.6728 24.395 18.1128 24.685C17.5528 24.965 16.8878 25.105 16.1178 25.105ZM22.7084 15.7C22.3384 15.7 22.0284 15.585 21.7784 15.355C21.5384 15.115 21.4184 14.82 21.4184 14.47C21.4184 14.12 21.5384 13.83 21.7784 13.6C22.0284 13.36 22.3384 13.24 22.7084 13.24C23.0784 13.24 23.3834 13.36 23.6234 13.6C23.8734 13.83 23.9984 14.12 23.9984 14.47C23.9984 14.82 23.8734 15.115 23.6234 15.355C23.3834 15.585 23.0784 15.7 22.7084 15.7ZM23.7434 16.69V25H21.6434V16.69H23.7434ZM29.0732 16.555C29.6932 16.555 30.2382 16.68 30.7082 16.93C31.1782 17.17 31.5482 17.485 31.8182 17.875V16.69H33.9332V25.06C33.9332 25.83 33.7782 26.515 33.4682 27.115C33.1582 27.725 32.6932 28.205 32.0732 28.555C31.4532 28.915 30.7032 29.095 29.8232 29.095C28.6432 29.095 27.6732 28.82 26.9132 28.27C26.1632 27.72 25.7382 26.97 25.6382 26.02H27.7232C27.8332 26.4 28.0682 26.7 28.4282 26.92C28.7982 27.15 29.2432 27.265 29.7632 27.265C30.3732 27.265 30.8682 27.08 31.2482 26.71C31.6282 26.35 31.8182 25.8 31.8182 25.06V23.77C31.5482 24.16 31.1732 24.485 30.6932 24.745C30.2232 25.005 29.6832 25.135 29.0732 25.135C28.3732 25.135 27.7332 24.955 27.1532 24.595C26.5732 24.235 26.1132 23.73 25.7732 23.08C25.4432 22.42 25.2782 21.665 25.2782 20.815C25.2782 19.975 25.4432 19.23 25.7732 18.58C26.1132 17.93 26.5682 17.43 27.1382 17.08C27.7182 16.73 28.3632 16.555 29.0732 16.555ZM31.8182 20.845C31.8182 20.335 31.7182 19.9 31.5182 19.54C31.3182 19.17 31.0482 18.89 30.7082 18.7C30.3682 18.5 30.0032 18.4 29.6132 18.4C29.2232 18.4 28.8632 18.495 28.5332 18.685C28.2032 18.875 27.9332 19.155 27.7232 19.525C27.5232 19.885 27.4232 20.315 27.4232 20.815C27.4232 21.315 27.5232 21.755 27.7232 22.135C27.9332 22.505 28.2032 22.79 28.5332 22.99C28.8732 23.19 29.2332 23.29 29.6132 23.29C30.0032 23.29 30.3682 23.195 30.7082 23.005C31.0482 22.805 31.3182 22.525 31.5182 22.165C31.7182 21.795 31.8182 21.355 31.8182 20.845ZM40.5892 16.57C41.5792 16.57 42.3792 16.885 42.9892 17.515C43.5992 18.135 43.9042 19.005 43.9042 20.125V25H41.8042V20.41C41.8042 19.75 41.6392 19.245 41.3092 18.895C40.9792 18.535 40.5292 18.355 39.9592 18.355C39.3792 18.355 38.9192 18.535 38.5792 18.895C38.2492 19.245 38.0842 19.75 38.0842 20.41V25H35.9842V16.69H38.0842V17.725C38.3642 17.365 38.7192 17.085 39.1492 16.885C39.5892 16.675 40.0692 16.57 40.5892 16.57ZM50.5404 15.7C50.1704 15.7 49.8604 15.585 49.6104 15.355C49.3704 15.115 49.2504 14.82 49.2504 14.47C49.2504 14.12 49.3704 13.83 49.6104 13.6C49.8604 13.36 50.1704 13.24 50.5404 13.24C50.9104 13.24 51.2154 13.36 51.4554 13.6C51.7054 13.83 51.8304 14.12 51.8304 14.47C51.8304 14.82 51.7054 15.115 51.4554 15.355C51.2154 15.585 50.9104 15.7 50.5404 15.7ZM51.5754 16.69V25H49.4754V16.69H51.5754ZM58.2552 16.57C59.2452 16.57 60.0452 16.885 60.6552 17.515C61.2652 18.135 61.5702 19.005 61.5702 20.125V25H59.4702V20.41C59.4702 19.75 59.3052 19.245 58.9752 18.895C58.6452 18.535 58.1952 18.355 57.6252 18.355C57.0452 18.355 56.5852 18.535 56.2452 18.895C55.9152 19.245 55.7502 19.75 55.7502 20.41V25H53.6502V16.69H55.7502V17.725C56.0302 17.365 56.3852 17.085 56.8152 16.885C57.2552 16.675 57.7352 16.57 58.2552 16.57Z" fill="white"/>
<path d="M80.714 24.098C80.0327 24.098 79.4167 23.9813 78.866 23.748C78.3247 23.5147 77.8954 23.1787 77.578 22.74C77.2607 22.3013 77.0974 21.7833 77.088 21.186H79.188C79.216 21.5873 79.356 21.9047 79.608 22.138C79.8694 22.3713 80.224 22.488 80.672 22.488C81.1294 22.488 81.4887 22.3807 81.75 22.166C82.0114 21.942 82.142 21.6527 82.142 21.298C82.142 21.0087 82.0534 20.7707 81.876 20.584C81.6987 20.3973 81.4747 20.2527 81.204 20.15C80.9427 20.038 80.5787 19.9167 80.112 19.786C79.4774 19.5993 78.9594 19.4173 78.558 19.24C78.166 19.0533 77.8254 18.778 77.536 18.414C77.256 18.0407 77.116 17.546 77.116 16.93C77.116 16.3513 77.2607 15.8473 77.55 15.418C77.8394 14.9887 78.2454 14.662 78.768 14.438C79.2907 14.2047 79.888 14.088 80.56 14.088C81.568 14.088 82.3847 14.3353 83.01 14.83C83.6447 15.3153 83.9947 15.9967 84.06 16.874H81.904C81.8854 16.538 81.7407 16.2627 81.47 16.048C81.2087 15.824 80.8587 15.712 80.42 15.712C80.0374 15.712 79.7294 15.81 79.496 16.006C79.272 16.202 79.16 16.4867 79.16 16.86C79.16 17.1213 79.244 17.3407 79.412 17.518C79.5894 17.686 79.804 17.826 80.056 17.938C80.3174 18.0407 80.6814 18.162 81.148 18.302C81.7827 18.4887 82.3007 18.6753 82.702 18.862C83.1034 19.0487 83.4487 19.3287 83.738 19.702C84.0274 20.0753 84.172 20.5653 84.172 21.172C84.172 21.6947 84.0367 22.18 83.766 22.628C83.4954 23.076 83.0987 23.4353 82.576 23.706C82.0534 23.9673 81.4327 24.098 80.714 24.098ZM86.8653 15.32C86.5199 15.32 86.2306 15.2127 85.9973 14.998C85.7733 14.774 85.6613 14.4987 85.6613 14.172C85.6613 13.8453 85.7733 13.5747 85.9973 13.36C86.2306 13.136 86.5199 13.024 86.8653 13.024C87.2106 13.024 87.4953 13.136 87.7193 13.36C87.9526 13.5747 88.0693 13.8453 88.0693 14.172C88.0693 14.4987 87.9526 14.774 87.7193 14.998C87.4953 15.2127 87.2106 15.32 86.8653 15.32ZM87.8313 16.244V24H85.8713V16.244H87.8313ZM92.8058 16.118C93.3844 16.118 93.8931 16.2347 94.3318 16.468C94.7704 16.692 95.1158 16.986 95.3678 17.35V16.244H97.3418V24.056C97.3418 24.7747 97.1971 25.414 96.9078 25.974C96.6184 26.5433 96.1844 26.9913 95.6058 27.318C95.0271 27.654 94.3271 27.822 93.5058 27.822C92.4044 27.822 91.4991 27.5653 90.7898 27.052C90.0898 26.5387 89.6931 25.8387 89.5998 24.952H91.5458C91.6484 25.3067 91.8678 25.5867 92.2038 25.792C92.5491 26.0067 92.9644 26.114 93.4498 26.114C94.0191 26.114 94.4811 25.9413 94.8358 25.596C95.1904 25.26 95.3678 24.7467 95.3678 24.056V22.852C95.1158 23.216 94.7658 23.5193 94.3178 23.762C93.8791 24.0047 93.3751 24.126 92.8058 24.126C92.1524 24.126 91.5551 23.958 91.0138 23.622C90.4724 23.286 90.0431 22.8147 89.7258 22.208C89.4178 21.592 89.2638 20.8873 89.2638 20.094C89.2638 19.31 89.4178 18.6147 89.7258 18.008C90.0431 17.4013 90.4678 16.9347 90.9998 16.608C91.5411 16.2813 92.1431 16.118 92.8058 16.118ZM95.3678 20.122C95.3678 19.646 95.2744 19.24 95.0878 18.904C94.9011 18.5587 94.6491 18.2973 94.3318 18.12C94.0144 17.9333 93.6738 17.84 93.3098 17.84C92.9458 17.84 92.6098 17.9287 92.3018 18.106C91.9938 18.2833 91.7418 18.5447 91.5458 18.89C91.3591 19.226 91.2658 19.6273 91.2658 20.094C91.2658 20.5607 91.3591 20.9713 91.5458 21.326C91.7418 21.6713 91.9938 21.9373 92.3018 22.124C92.6191 22.3107 92.9551 22.404 93.3098 22.404C93.6738 22.404 94.0144 22.3153 94.3318 22.138C94.6491 21.9513 94.9011 21.69 95.0878 21.354C95.2744 21.0087 95.3678 20.598 95.3678 20.122ZM103.554 16.132C104.478 16.132 105.225 16.426 105.794 17.014C106.363 17.5927 106.648 18.4047 106.648 19.45V24H104.688V19.716C104.688 19.1 104.534 18.6287 104.226 18.302C103.918 17.966 103.498 17.798 102.966 17.798C102.425 17.798 101.995 17.966 101.678 18.302C101.37 18.6287 101.216 19.1 101.216 19.716V24H99.256V16.244H101.216V17.21C101.477 16.874 101.809 16.6127 102.21 16.426C102.621 16.23 103.069 16.132 103.554 16.132ZM119.17 16.244V24H117.196V23.02C116.944 23.356 116.613 23.622 116.202 23.818C115.801 24.0047 115.362 24.098 114.886 24.098C114.279 24.098 113.743 23.972 113.276 23.72C112.809 23.4587 112.441 23.0807 112.17 22.586C111.909 22.082 111.778 21.4847 111.778 20.794V16.244H113.738V20.514C113.738 21.13 113.892 21.606 114.2 21.942C114.508 22.2687 114.928 22.432 115.46 22.432C116.001 22.432 116.426 22.2687 116.734 21.942C117.042 21.606 117.196 21.13 117.196 20.514V16.244H119.17ZM123.064 17.364C123.316 17.0093 123.661 16.7153 124.1 16.482C124.548 16.2393 125.056 16.118 125.626 16.118C126.288 16.118 126.886 16.2813 127.418 16.608C127.959 16.9347 128.384 17.4013 128.692 18.008C129.009 18.6053 129.168 19.3007 129.168 20.094C129.168 20.8873 129.009 21.592 128.692 22.208C128.384 22.8147 127.959 23.286 127.418 23.622C126.886 23.958 126.288 24.126 125.626 24.126C125.056 24.126 124.552 24.0093 124.114 23.776C123.684 23.5427 123.334 23.2487 123.064 22.894V27.696H121.104V16.244H123.064V17.364ZM127.166 20.094C127.166 19.6273 127.068 19.226 126.872 18.89C126.685 18.5447 126.433 18.2833 126.116 18.106C125.808 17.9287 125.472 17.84 125.108 17.84C124.753 17.84 124.417 17.9333 124.1 18.12C123.792 18.2973 123.54 18.5587 123.344 18.904C123.157 19.2493 123.064 19.6553 123.064 20.122C123.064 20.5887 123.157 20.9947 123.344 21.34C123.54 21.6853 123.792 21.9513 124.1 22.138C124.417 22.3153 124.753 22.404 125.108 22.404C125.472 22.404 125.808 22.3107 126.116 22.124C126.433 21.9373 126.685 21.6713 126.872 21.326C127.068 20.9807 127.166 20.57 127.166 20.094Z" fill="white"/>
</svg>
