<svg width="88" height="54" viewBox="0 0 88 54" fill="none" xmlns="http://www.w3.org/2000/svg">
<rect x="10" width="78" height="54" rx="27" fill="#FF1E1E"/>
<rect width="40" height="54" fill="#FF1E1E"/>
<path d="M31.5438 21.768L27.5598 33H24.1358L20.1518 21.768H23.0638L25.8478 30.248L28.6478 21.768H31.5438ZM41.1033 28.392C41.1033 28.648 41.0873 28.9147 41.0553 29.192H34.8633C34.906 29.7467 35.082 30.1733 35.3913 30.472C35.7113 30.76 36.1006 30.904 36.5593 30.904C37.242 30.904 37.7166 30.616 37.9833 30.04H40.8953C40.746 30.6267 40.474 31.1547 40.0793 31.624C39.6953 32.0933 39.21 32.4613 38.6233 32.728C38.0366 32.9947 37.3806 33.128 36.6553 33.128C35.7806 33.128 35.002 32.9413 34.3193 32.568C33.6366 32.1947 33.1033 31.6613 32.7193 30.968C32.3353 30.2747 32.1433 29.464 32.1433 28.536C32.1433 27.608 32.33 26.7973 32.7033 26.104C33.0873 25.4107 33.6206 24.8773 34.3033 24.504C34.986 24.1307 35.77 23.944 36.6553 23.944C37.5193 23.944 38.2873 24.1253 38.9593 24.488C39.6313 24.8507 40.154 25.368 40.5273 26.04C40.9113 26.712 41.1033 27.496 41.1033 28.392ZM38.3033 27.672C38.3033 27.2027 38.1433 26.8293 37.8233 26.552C37.5033 26.2747 37.1033 26.136 36.6233 26.136C36.1646 26.136 35.7753 26.2693 35.4553 26.536C35.146 26.8027 34.954 27.1813 34.8793 27.672H38.3033ZM45.2827 25.56C45.6027 25.0693 46.0027 24.6853 46.4827 24.408C46.9627 24.12 47.496 23.976 48.0827 23.976V26.872H47.3307C46.648 26.872 46.136 27.0213 45.7947 27.32C45.4534 27.608 45.2827 28.12 45.2827 28.856V33H42.5467V24.072H45.2827V25.56ZM50.7664 23.144C50.2864 23.144 49.8918 23.0053 49.5824 22.728C49.2838 22.44 49.1344 22.088 49.1344 21.672C49.1344 21.2453 49.2838 20.8933 49.5824 20.616C49.8918 20.328 50.2864 20.184 50.7664 20.184C51.2358 20.184 51.6198 20.328 51.9184 20.616C52.2278 20.8933 52.3824 21.2453 52.3824 21.672C52.3824 22.088 52.2278 22.44 51.9184 22.728C51.6198 23.0053 51.2358 23.144 50.7664 23.144ZM52.1264 24.072V33H49.3904V24.072H52.1264ZM58.5892 26.344H57.1172V33H54.3812V26.344H53.3892V24.072H54.3812V23.816C54.3812 22.7173 54.6959 21.8853 55.3252 21.32C55.9545 20.744 56.8772 20.456 58.0932 20.456C58.2959 20.456 58.4452 20.4613 58.5412 20.472V22.792C58.0185 22.76 57.6505 22.8347 57.4372 23.016C57.2239 23.1973 57.1172 23.5227 57.1172 23.992V24.072H58.5892V26.344ZM68.9948 24.072L63.3948 37.24H60.4508L62.4988 32.696L58.8668 24.072H61.9228L63.9868 29.656L66.0348 24.072H68.9948Z" fill="white"/>
</svg>
