<svg width="88" height="54" viewBox="0 0 88 54" fill="none" xmlns="http://www.w3.org/2000/svg">
<rect x="10" width="78" height="54" rx="27" fill="#1EFF34"/>
<rect width="40" height="54" fill="#1EFF34"/>
<path d="M21.8798 21.768L17.8958 33H14.4718L10.4878 21.768H13.3998L16.1838 30.248L18.9838 21.768H21.8798ZM31.4392 28.392C31.4392 28.648 31.4233 28.9147 31.3913 29.192H25.1993C25.2419 29.7467 25.4179 30.1733 25.7273 30.472C26.0473 30.76 26.4366 30.904 26.8953 30.904C27.5779 30.904 28.0526 30.616 28.3193 30.04H31.2313C31.0819 30.6267 30.8099 31.1547 30.4153 31.624C30.0313 32.0933 29.5459 32.4613 28.9593 32.728C28.3726 32.9947 27.7166 33.128 26.9913 33.128C26.1166 33.128 25.3379 32.9413 24.6553 32.568C23.9726 32.1947 23.4393 31.6613 23.0553 30.968C22.6713 30.2747 22.4793 29.464 22.4793 28.536C22.4793 27.608 22.6659 26.7973 23.0393 26.104C23.4233 25.4107 23.9566 24.8773 24.6393 24.504C25.3219 24.1307 26.1059 23.944 26.9913 23.944C27.8553 23.944 28.6233 24.1253 29.2953 24.488C29.9673 24.8507 30.4899 25.368 30.8633 26.04C31.2473 26.712 31.4392 27.496 31.4392 28.392ZM28.6393 27.672C28.6393 27.2027 28.4793 26.8293 28.1593 26.552C27.8393 26.2747 27.4393 26.136 26.9593 26.136C26.5006 26.136 26.1113 26.2693 25.7913 26.536C25.4819 26.8027 25.2899 27.1813 25.2153 27.672H28.6393ZM35.6186 25.56C35.9386 25.0693 36.3386 24.6853 36.8186 24.408C37.2986 24.12 37.832 23.976 38.4186 23.976V26.872H37.6666C36.984 26.872 36.472 27.0213 36.1306 27.32C35.7893 27.608 35.6186 28.12 35.6186 28.856V33H32.8826V24.072H35.6186V25.56ZM41.1024 23.144C40.6224 23.144 40.2277 23.0053 39.9184 22.728C39.6197 22.44 39.4704 22.088 39.4704 21.672C39.4704 21.2453 39.6197 20.8933 39.9184 20.616C40.2277 20.328 40.6224 20.184 41.1024 20.184C41.5717 20.184 41.9557 20.328 42.2544 20.616C42.5637 20.8933 42.7184 21.2453 42.7184 21.672C42.7184 22.088 42.5637 22.44 42.2544 22.728C41.9557 23.0053 41.5717 23.144 41.1024 23.144ZM42.4624 24.072V33H39.7264V24.072H42.4624ZM48.9251 26.344H47.4531V33H44.7171V26.344H43.7251V24.072H44.7171V23.816C44.7171 22.7173 45.0318 21.8853 45.6611 21.32C46.2905 20.744 47.2131 20.456 48.4291 20.456C48.6318 20.456 48.7811 20.4613 48.8771 20.472V22.792C48.3545 22.76 47.9865 22.8347 47.7731 23.016C47.5598 23.1973 47.4531 23.5227 47.4531 23.992V24.072H48.9251V26.344ZM51.5868 23.144C51.1068 23.144 50.7121 23.0053 50.4028 22.728C50.1041 22.44 49.9548 22.088 49.9548 21.672C49.9548 21.2453 50.1041 20.8933 50.4028 20.616C50.7121 20.328 51.1068 20.184 51.5868 20.184C52.0561 20.184 52.4401 20.328 52.7388 20.616C53.0481 20.8933 53.2028 21.2453 53.2028 21.672C53.2028 22.088 53.0481 22.44 52.7388 22.728C52.4401 23.0053 52.0561 23.144 51.5868 23.144ZM52.9468 24.072V33H50.2108V24.072H52.9468ZM63.3455 28.392C63.3455 28.648 63.3295 28.9147 63.2975 29.192H57.1055C57.1482 29.7467 57.3242 30.1733 57.6335 30.472C57.9535 30.76 58.3428 30.904 58.8015 30.904C59.4842 30.904 59.9588 30.616 60.2255 30.04H63.1375C62.9882 30.6267 62.7162 31.1547 62.3215 31.624C61.9375 32.0933 61.4522 32.4613 60.8655 32.728C60.2788 32.9947 59.6228 33.128 58.8975 33.128C58.0228 33.128 57.2442 32.9413 56.5615 32.568C55.8788 32.1947 55.3455 31.6613 54.9615 30.968C54.5775 30.2747 54.3855 29.464 54.3855 28.536C54.3855 27.608 54.5722 26.7973 54.9455 26.104C55.3295 25.4107 55.8628 24.8773 56.5455 24.504C57.2282 24.1307 58.0122 23.944 58.8975 23.944C59.7615 23.944 60.5295 24.1253 61.2015 24.488C61.8735 24.8507 62.3962 25.368 62.7695 26.04C63.1535 26.712 63.3455 27.496 63.3455 28.392ZM60.5455 27.672C60.5455 27.2027 60.3855 26.8293 60.0655 26.552C59.7455 26.2747 59.3455 26.136 58.8655 26.136C58.4068 26.136 58.0175 26.2693 57.6975 26.536C57.3882 26.8027 57.1962 27.1813 57.1215 27.672H60.5455ZM64.2449 28.52C64.2449 27.6027 64.4155 26.7973 64.7569 26.104C65.1089 25.4107 65.5835 24.8773 66.1809 24.504C66.7782 24.1307 67.4449 23.944 68.1809 23.944C68.7675 23.944 69.3009 24.0667 69.7809 24.312C70.2715 24.5573 70.6555 24.888 70.9329 25.304V21.16H73.6689V33H70.9329V31.72C70.6769 32.1467 70.3089 32.488 69.8289 32.744C69.3595 33 68.8102 33.128 68.1809 33.128C67.4449 33.128 66.7782 32.9413 66.1809 32.568C65.5835 32.184 65.1089 31.6453 64.7569 30.952C64.4155 30.248 64.2449 29.4373 64.2449 28.52ZM70.9329 28.536C70.9329 27.8533 70.7409 27.3147 70.3569 26.92C69.9835 26.5253 69.5249 26.328 68.9809 26.328C68.4369 26.328 67.9729 26.5253 67.5889 26.92C67.2155 27.304 67.0289 27.8373 67.0289 28.52C67.0289 29.2027 67.2155 29.7467 67.5889 30.152C67.9729 30.5467 68.4369 30.744 68.9809 30.744C69.5249 30.744 69.9835 30.5467 70.3569 30.152C70.7409 29.7573 70.9329 29.2187 70.9329 28.536Z" fill="white"/>
</svg>
